<?xml version="1.0" standalone="no"?>
<!DOCTYPE svg PUBLIC "-//W3C//DTD SVG 20010904//EN"
 "http://www.w3.org/TR/2001/REC-SVG-20010904/DTD/svg10.dtd">
<svg version="1.0" xmlns="http://www.w3.org/2000/svg"
 width="700.000000pt" height="700.000000pt" viewBox="0 0 700.000000 700.000000"
 preserveAspectRatio="xMidYMid meet">
<metadata>
Created by potrace 1.14, written by Peter Selinger 2001-2017
</metadata>
<g transform="translate(0.000000,700.000000) scale(0.100000,-0.100000)"
fill="#000000" stroke="none">
<path d="M5360 6710 c-297 -42 -582 -220 -769 -481 -91 -128 -171 -314 -196
-459 -22 -128 -26 -287 -9 -380 4 -25 8 -49 9 -55 1 -8 16 -77 20 -95 1 -3 5
-13 8 -22 4 -10 9 -24 11 -32 9 -28 -332 -123 -539 -152 -27 -3 -58 -8 -68
-10 -141 -25 -509 -24 -707 2 -38 5 -253 45 -312 59 -101 23 -400 130 -490
176 -41 21 -59 19 -41 -3 19 -24 131 -243 171 -333 22 -49 60 -146 86 -215 26
-69 58 -142 72 -163 71 -108 195 -177 320 -177 47 0 175 32 199 49 6 4 35 15
65 24 53 16 70 20 135 33 68 13 233 12 315 -2 117 -20 169 -37 287 -96 l101
-50 64 54 c153 130 402 276 628 369 211 87 470 230 634 350 67 50 130 126 159
194 67 158 39 355 -69 479 l-25 29 -37 -34 c-20 -19 -39 -37 -42 -41 -14 -17
-101 -48 -141 -49 -179 -7 -330 182 -274 344 33 98 161 228 289 298 193 104
385 127 611 75 275 -64 518 -301 604 -591 76 -253 31 -534 -120 -756 -48 -72
-44 -67 -119 -144 -128 -133 -337 -242 -500 -262 -73 -9 -61 -16 15 -9 398 37
731 307 855 691 37 116 45 180 44 340 -3 506 -352 921 -865 1031 -90 19 -290
26 -379 14z"/>
<path d="M1277 6644 c-1 -1 -27 -5 -57 -9 -220 -26 -455 -140 -611 -296 -84
-85 -97 -100 -146 -176 -71 -112 -140 -285 -168 -428 -14 -66 -14 -282 0 -363
41 -251 173 -486 371 -662 167 -148 357 -241 584 -284 118 -23 325 -18 445 9
55 13 107 26 116 30 14 5 22 -10 47 -87 44 -133 66 -220 97 -378 3 -14 8 -47
11 -75 4 -27 8 -53 10 -56 16 -28 24 -461 11 -599 -11 -119 -14 -137 -44 -300
-29 -160 -115 -423 -197 -602 -14 -31 -26 -60 -26 -63 0 -4 15 2 33 13 123 75
418 211 572 263 39 13 88 34 110 47 127 77 204 220 192 356 -8 78 -7 75 -46
176 -45 114 -63 205 -66 330 -5 176 30 325 112 482 l46 86 -60 74 c-137 168
-252 362 -352 594 -111 259 -199 424 -324 607 -71 105 -141 170 -222 208 -62
29 -171 52 -215 44 -14 -2 -41 -6 -60 -9 -54 -8 -119 -33 -171 -67 -72 -46
-74 -51 -38 -90 99 -110 117 -206 60 -318 -68 -131 -215 -187 -342 -129 -66
30 -165 120 -225 204 -232 325 -184 793 111 1079 99 97 245 177 390 216 101
27 291 34 385 13 195 -41 347 -123 484 -260 125 -125 213 -279 250 -440 8 -38
18 -78 20 -89 3 -11 3 7 1 40 -13 214 -110 425 -274 598 -151 159 -325 252
-545 292 -71 13 -261 26 -269 19z"/>
<path d="M5165 4689 c-114 -64 -267 -135 -418 -194 -78 -30 -170 -69 -205 -86
-173 -86 -253 -316 -172 -492 121 -264 110 -588 -29 -852 l-47 -90 54 -65
c132 -159 279 -410 367 -625 40 -98 143 -308 194 -395 80 -136 196 -298 240
-333 178 -145 432 -142 598 6 l22 20 -40 41 c-113 118 -112 268 2 384 79 79
196 100 295 52 67 -33 201 -169 252 -255 138 -235 147 -547 21 -798 -179 -357
-601 -546 -994 -446 -208 53 -392 177 -524 353 -78 103 -125 202 -162 341
l-19 70 5 -60 c5 -70 8 -83 42 -190 90 -281 329 -526 608 -623 100 -35 185
-52 295 -58 421 -25 818 200 1003 566 129 255 163 519 102 786 -19 85 -69 206
-117 289 -173 295 -455 495 -803 571 -157 34 -430 17 -567 -35 -24 -9 -27 -7
-41 27 -51 128 -114 390 -133 552 -3 30 -9 64 -11 75 -10 37 -11 490 -2 560 4
39 11 90 14 115 5 40 12 83 20 130 31 164 104 400 180 578 29 67 50 122 46
121 -3 0 -37 -18 -76 -40z"/>
<path d="M2865 2644 c-125 -101 -277 -198 -424 -271 -75 -37 -145 -70 -156
-75 -261 -101 -629 -312 -737 -422 -162 -164 -176 -428 -31 -608 l29 -36 50
44 c93 84 195 100 299 49 136 -66 193 -217 131 -346 -29 -63 -133 -176 -209
-227 -242 -166 -570 -186 -842 -50 -176 88 -299 213 -385 393 -66 136 -84 219
-84 380 -1 166 19 257 89 400 93 192 262 357 458 449 58 27 193 66 229 66 10
0 18 5 18 11 0 5 -3 8 -7 6 -5 -3 -35 -8 -68 -11 -197 -22 -422 -133 -571
-281 -192 -191 -296 -442 -296 -715 -1 -93 1 -114 23 -234 51 -286 262 -568
532 -711 243 -129 489 -168 762 -120 61 11 192 59 276 101 265 132 484 390
583 686 70 208 74 477 11 690 -8 26 -11 49 -7 52 18 10 213 69 305 90 107 26
137 32 202 42 22 3 51 8 65 10 159 27 603 26 767 -2 15 -3 55 -9 88 -15 214
-37 490 -124 676 -214 29 -13 54 -23 56 -21 3 2 -7 22 -20 44 -68 106 -174
339 -268 587 -12 33 -34 77 -47 99 -66 106 -191 178 -313 178 -71 0 -105 -7
-210 -48 -133 -51 -232 -69 -374 -66 -177 3 -336 49 -490 142 l-30 18 -80 -64z"/>
</g>
</svg>
