<svg width="710" height="250" xmlns="http://www.w3.org/2000/svg" version="1.1" xml:space="preserve">
 <g>
  <title>Layer 1</title>
  <g stroke="null" id="svg_2">
   <g stroke="null" id="svg_3">
    <path stroke="null" class="st2" d="m289.40422,165.54738l0,4.35992l-18.14128,0l0,14.37437l15.37665,0l0,4.18452l-15.37665,0l0,18.61736l-5.3622,0l0,-41.53618l23.50348,0z" fill="#000000" id="svg_4"/>
    <path stroke="null" class="st2" d="m301.1309,190.35382l0,16.72973l-5.3622,0l0,-41.53618l13.19669,0c4.75248,0 8.31058,1.11086 10.66594,3.33258c2.35536,2.22172 3.53304,5.25362 3.53304,9.10405c0,3.89219 -1.21944,6.92409 -3.64997,9.10405c-2.43888,2.17996 -5.94686,3.26576 -10.549,3.26576l-7.83449,0zm14.39943,-6.53988c1.4366,-1.37814 2.14655,-3.31588 2.14655,-5.82993c0,-2.58922 -0.7183,-4.56873 -2.14655,-5.92181c-1.4366,-1.35308 -3.78361,-2.02962 -7.04102,-2.02962l-7.36676,0l0,15.84439l7.36676,0c3.25741,0 5.60442,-0.68489 7.04102,-2.06303z" fill="#000000" id="svg_5"/>
    <path stroke="null" class="st2" d="m332.11808,165.54738l12.66214,35.58096l12.8459,-35.58096l5.82993,0l-15.25972,41.53618l-6.77375,0l-15.20126,-41.53618l5.89675,0z" fill="#000000" id="svg_6"/>
   </g>
   <path stroke="null" class="st2" d="m280.79296,47.3952l30.34404,-20.92261l19.84516,0l-36.92569,26.30986l39.40633,28.54829l-21.59915,0l-31.06235,-22.79353l0,22.79353l-14.89222,0l0,-54.8498l14.89222,0l0,20.91425l-0.00835,0z" fill="#000000" id="svg_7"/>
   <path stroke="null" class="st2" d="m350.20924,81.33075l0,-54.8498l14.8087,0l0,54.8498l-14.8087,0z" fill="#000000" id="svg_8"/>
   <path stroke="null" class="st2" d="m442.17683,81.33075l-37.00921,-37.68575l0,37.68575l-14.8087,0l0,-54.8498l16.0866,0l37.05097,37.84444l0,-37.84444l14.73352,0l0,54.8498l-16.05319,0z" fill="#000000" id="svg_9"/>
   <path stroke="null" class="st2" d="m535.38893,81.33075l-37.00921,-37.68575l0,37.68575l-14.8087,0l0,-54.8498l16.0866,0l37.05097,37.84444l0,-37.84444l14.73352,0l0,54.8498l-16.05319,0z" fill="#000000" id="svg_10"/>
   <polygon stroke="null" class="st2" points="613.82568359375,26.47259521484375 597.3048095703125,26.47259521484375 568.5977783203125,81.33074951171875 585.1270751953125,81.33074951171875 605.6488037109375,40.045166015625 626.00341796875,81.33074951171875 642.53271484375,81.33074951171875 " fill="#000000" id="svg_11"/>
   <path stroke="null" class="st2" d="m699.41214,61.05128c0,3.64997 -0.59302,6.79045 -1.77905,9.42144c-1.18603,2.63099 -2.91497,4.80259 -5.1868,6.50647c-2.28019,1.70388 -5.06152,2.96508 -8.36069,3.77526c-3.29917,0.81018 -7.06608,1.21944 -11.30071,1.21944c-1.99621,0 -4.04253,-0.10023 -6.14732,-0.30068c-2.10479,-0.20046 -4.12606,-0.44267 -6.07215,-0.73501c-1.94609,-0.29233 -3.7335,-0.60137 -5.37055,-0.93546c-1.63706,-0.33409 -2.99849,-0.64313 -4.09265,-0.93546l0,-12.85425c1.11921,0.45103 2.33865,0.9104 3.67503,1.37814c1.32802,0.46773 2.81474,0.88535 4.4518,1.2612c1.63706,0.37586 3.44952,0.67654 5.42902,0.91876c1.9795,0.24222 4.17617,0.35915 6.56494,0.35915c2.58087,0 4.72742,-0.28398 6.448,-0.86029c1.72058,-0.56796 3.09037,-1.36978 4.13441,-2.39712c1.03569,-1.02734 1.7707,-2.23007 2.19666,-3.61656c0.42597,-1.38649 0.63478,-2.89826 0.63478,-4.55202l0,-32.21497l14.77529,0l0,34.56197z" fill="#000000" id="svg_12"/>
   <path stroke="null" class="st2" d="m280.70943,108.66796l0,9.53837l35.64778,0l0,11.69327l-35.64778,0l0,21.91654l-14.8087,0l0,-54.8498l52.41927,0l0,11.69327l-37.61058,0l0,0.00835z" fill="#000000" id="svg_13"/>
   <path stroke="null" class="st2" d="m339.15074,151.82449l0,-54.8498l14.8087,0l0,54.8498l-14.8087,0z" fill="#000000" id="svg_14"/>
   <path stroke="null" class="st2" d="m379.30043,151.82449l0,-54.8498l14.8087,0l0,42.83914l40.04111,0l0,12.01901l-54.8498,0l0,-0.00835z" fill="#000000" id="svg_15"/>
   <path stroke="null" class="st2" d="m523.92952,151.82449l0,-38.52098l-20.363,38.52098l-14.21568,0l-20.363,-38.52098l0,38.52098l-14.8087,0l0,-54.8498l20.12078,0l22.15875,41.51947l22.15875,-41.51947l20.03726,0l0,54.8498l-14.72517,0z" fill="#000000" id="svg_16"/>
   <path stroke="null" class="st2" d="m614.55239,112.41816c-1.03569,-0.50114 -2.40547,-1.07745 -4.10935,-1.71223c-1.70388,-0.63478 -3.63327,-1.2445 -5.78817,-1.81246s-4.50191,-1.05239 -7.02432,-1.4366c-2.53076,-0.38421 -5.11998,-0.57631 -7.78438,-0.57631c-2.12985,0 -3.9423,0.06682 -5.44572,0.20046c-1.50342,0.13364 -2.76462,0.30904 -3.79196,0.51784c-1.02734,0.21716 -1.83751,0.45938 -2.43888,0.73501c-0.60137,0.27563 -1.06075,0.56796 -1.37814,0.86029c-0.31739,0.29233 -0.5262,0.58466 -0.61807,0.877c-0.09188,0.29233 -0.14199,0.55961 -0.14199,0.80182c0,0.80182 0.40091,1.49507 1.19438,2.09644c0.80182,0.60137 1.88763,1.12757 3.27412,1.5953c1.38649,0.46773 2.99849,0.90205 4.82765,1.31967c1.83751,0.40926 3.78361,0.83523 5.84664,1.27791c2.06303,0.44267 4.19287,0.91876 6.38954,1.4366s4.32651,1.12757 6.38954,1.81246c2.06303,0.69324 4.00912,1.49507 5.84664,2.41383c1.83751,0.91876 3.44952,1.98786 4.82765,3.21565c1.38649,1.22779 2.47229,2.63099 3.27412,4.23464c0.80182,1.5953 1.19438,3.42446 1.19438,5.47078c0,2.63099 -0.46773,4.89447 -1.39484,6.79045c-0.93546,1.88763 -2.17996,3.48292 -3.7335,4.79424c-1.55353,1.30296 -3.35764,2.34701 -5.41232,3.13213c-2.04632,0.78512 -4.20123,1.39484 -6.448,1.81246c-2.24678,0.42597 -4.52697,0.7016 -6.82386,0.83523c-2.30525,0.13364 -4.49356,0.20046 -6.56494,0.20046c-5.42902,0 -10.45713,-0.44267 -15.06762,-1.33637c-4.61884,-0.8937 -8.69478,-2.00456 -12.23618,-3.33258l0,-13.09647c3.64162,2.02127 7.80108,3.60821 12.47839,4.75248c4.66896,1.14427 9.66366,1.71223 14.99245,1.71223c3.14048,0 5.70465,-0.16705 7.68415,-0.50114c1.9795,-0.33409 3.53304,-0.76006 4.65225,-1.27791c1.11921,-0.51784 1.87928,-1.0858 2.27184,-1.69552c0.40091,-0.60972 0.60137,-1.19438 0.60137,-1.75399c0,-0.877 -0.40091,-1.64541 -1.19438,-2.29689c-0.80182,-0.65148 -1.88763,-1.22779 -3.27412,-1.72058c-1.38649,-0.49279 -2.99014,-0.94381 -4.82765,-1.35308c-1.83751,-0.40926 -3.78361,-0.82688 -5.84664,-1.23615c-2.06303,-0.40926 -4.18452,-0.86029 -6.36448,-1.33637s-4.30145,-1.04404 -6.36448,-1.69552c-2.06303,-0.65148 -4.00912,-1.41155 -5.84664,-2.27184c-1.83751,-0.86029 -3.44952,-1.88763 -4.82765,-3.07366c-1.38649,-1.18603 -2.47229,-2.55582 -3.27412,-4.10935c-0.80182,-1.55353 -1.19438,-3.35764 -1.19438,-5.41232c0,-2.42218 0.42597,-4.51026 1.27791,-6.26425c0.85194,-1.75399 2.00456,-3.25741 3.44952,-4.49356c1.45331,-1.23615 3.12377,-2.23843 5.02811,-3.01519c1.90433,-0.76842 3.90889,-1.36978 6.00533,-1.79575c2.10479,-0.42597 4.23464,-0.7183 6.38954,-0.877c2.1549,-0.15869 4.20123,-0.24222 6.14732,-0.24222c2.12985,0 4.31816,0.10858 6.56494,0.31739c2.24678,0.21716 4.46015,0.50949 6.64846,0.90205c2.17996,0.38421 4.2931,0.83523 6.33107,1.33637c2.03797,0.50949 3.91725,1.03569 5.64618,1.5953l0,12.67885l-0.0167,0z" fill="#000000" id="svg_17"/>
   <path stroke="null" class="st2" d="m84.4796,157.31197c7.73427,-2.63099 11.59305,-11.2673 8.24376,-18.71759c-1.94609,-4.33486 -3.0319,-9.13746 -3.0319,-14.19897c0,-7.1329 2.14655,-13.76465 5.85499,-19.2772c-10.49889,-11.86032 -14.87551,-24.0965 -14.87551,-24.0965l0,0.0167c-3.32423,-8.24376 -7.63404,-16.17848 -12.93777,-23.62041c-5.8884,-8.26046 -17.77378,-9.3045 -24.95679,-2.12149c0.59302,0.59302 1.18603,1.19438 1.76234,1.80411c8.08506,8.51103 -3.5748,21.38199 -12.79578,14.11545c-0.07517,-0.05847 -0.15034,-0.12529 -0.22551,-0.18375c-16.9636,-12.95448 -13.48067,-40.16639 5.56266,-49.62959c21.24835,-11.01673 46.64781,4.81095 47.63338,28.565c0.28398,-7.66745 -1.83751,-15.66063 -6.55659,-22.09193c-15.65228,-22.10029 -49.59618,-19.44424 -62.85134,4.00912c-18.84287,35.07982 15.97802,70.03435 49.95533,58.44131c9.32956,25.19065 7.95978,53.48002 -4.14276,77.74356c7.34171,-4.35992 15.10938,-7.94307 23.17774,-10.67429c0,-0.00835 0.00835,-0.0167 0.00835,-0.02506c0.05011,-0.0167 0.10858,-0.03341 0.1754,-0.05847z" fill="#000000" id="svg_18"/>
   <path stroke="null" class="st2" d="m157.32034,164.31958c-2.63099,-7.73427 -11.2673,-11.59305 -18.71759,-8.24376c-4.33486,1.94609 -9.13746,3.0319 -14.19897,3.0319c-7.1329,0 -13.76465,-2.14655 -19.2772,-5.85499c-11.86032,10.49889 -24.0965,14.87551 -24.0965,14.87551l0.0167,0c-8.24376,3.32423 -16.17848,7.63404 -23.62041,12.93777c-8.26046,5.8884 -9.3045,17.77378 -2.12149,24.95679c0.59302,-0.59302 1.19438,-1.18603 1.80411,-1.76234c8.51103,-8.08506 21.38199,3.5748 14.11545,12.79578c-0.05847,0.07517 -0.11693,0.15034 -0.18375,0.22551c-12.95448,16.9636 -40.16639,13.48067 -49.62959,-5.56266c-11.01673,-21.24835 4.81095,-46.64781 28.565,-47.63338c-7.66745,-0.28398 -15.66063,1.83751 -22.09193,6.55659c-22.10029,15.65228 -19.44424,49.59618 4.00912,62.85134c35.07982,18.84287 70.03435,-15.97802 58.44131,-49.95533c25.19065,-9.32956 53.48002,-7.95978 77.74356,4.14276c-4.35992,-7.34171 -7.94307,-15.10938 -10.67429,-23.17774c-0.00835,0 -0.0167,-0.00835 -0.02506,-0.00835c-0.0167,-0.05011 -0.03341,-0.10858 -0.05847,-0.1754z" fill="#000000" id="svg_19"/>
   <path stroke="null" class="st2" d="m164.32796,91.47884c-7.73427,2.63099 -11.59305,11.2673 -8.24376,18.71759c1.94609,4.33486 3.0319,9.13746 3.0319,14.19897c0,7.1329 -2.14655,13.76465 -5.85499,19.2772c10.49889,11.86032 14.87551,24.0965 14.87551,24.0965l0,-0.0167c3.32423,8.24376 7.63404,16.17848 12.93777,23.62041c5.8884,8.26046 17.77378,9.3045 24.95679,2.12149c-0.59302,-0.59302 -1.18603,-1.19438 -1.76234,-1.80411c-8.08506,-8.51103 3.5748,-21.38199 12.79578,-14.11545c0.07517,0.05847 0.15034,0.12529 0.22551,0.18375c16.9636,12.95448 13.48067,40.16639 -5.56266,49.62959c-21.24835,11.01673 -46.64781,-4.81095 -47.63338,-28.565c-0.28398,7.66745 1.83751,15.66063 6.55659,22.09193c15.65228,22.10029 49.59618,19.44424 62.84299,-4.00912c18.84287,-35.07982 -15.97802,-70.03435 -49.95533,-58.44131c-9.32956,-25.19065 -7.95978,-53.48002 4.14276,-77.74356c-7.34171,4.35992 -15.10938,7.94307 -23.17774,10.67429c0,0.00835 -0.00835,0.0167 -0.00835,0.02506c-0.04176,0.0167 -0.10023,0.03341 -0.16705,0.05847z" fill="#000000" id="svg_20"/>
   <path stroke="null" class="st2" d="m91.48722,84.47123c2.63099,7.73427 11.2673,11.59305 18.71759,8.24376c4.33486,-1.94609 9.13746,-3.0319 14.19897,-3.0319c7.1329,0 13.76465,2.14655 19.2772,5.85499c11.86032,-10.49889 24.0965,-14.87551 24.0965,-14.87551l-0.0167,0c8.24376,-3.32423 16.17848,-7.63404 23.62041,-12.93777c8.26046,-5.8884 9.3045,-17.77378 2.12149,-24.95679c-0.59302,0.59302 -1.19438,1.18603 -1.80411,1.76234c-8.51103,8.08506 -21.38199,-3.5748 -14.11545,-12.79578c0.05847,-0.07517 0.11693,-0.15034 0.18375,-0.22551c12.95448,-16.9636 40.16639,-13.48067 49.62959,5.56266c11.01673,21.24835 -4.81095,46.64781 -28.565,47.63338c7.66745,0.28398 15.66063,-1.83751 22.09193,-6.55659c22.10029,-15.65228 19.44424,-49.59618 -4.00912,-62.84299c-35.07982,-18.84287 -70.03435,15.97802 -58.44131,49.95533c-25.19065,9.32956 -53.48002,7.95978 -77.74356,-4.14276c4.35992,7.34171 7.94307,15.10938 10.67429,23.17774c0.00835,0 0.0167,0.00835 0.02506,0.00835c0.0167,0.04176 0.03341,0.10023 0.05847,0.16705z" fill="#000000" id="svg_21"/>
  </g>
 </g>

</svg>