<?xml version="1.0" encoding="UTF-8" standalone="no" ?>
<!DOCTYPE svg PUBLIC "-//W3C//DTD SVG 1.1//EN" "http://www.w3.org/Graphics/SVG/1.1/DTD/svg11.dtd">
<svg xmlns="http://www.w3.org/2000/svg" xmlns:xlink="http://www.w3.org/1999/xlink" version="1.1" width="1080" height="1080" viewBox="0 0 1080 1080" xml:space="preserve">
<desc>Created with Fabric.js 5.2.4</desc>
<defs>
</defs>
<rect x="0" y="0" width="100%" height="100%" fill="transparent"></rect>
<g transform="matrix(1 0 0 1 540 540)" id="52f9dafc-c20d-4e25-8deb-78cb26f28f0a"  >
<rect style="stroke: none; stroke-width: 1; stroke-dasharray: none; stroke-linecap: butt; stroke-dashoffset: 0; stroke-linejoin: miter; stroke-miterlimit: 4; fill: rgb(43,43,43); fill-rule: nonzero; opacity: 1;" vector-effect="non-scaling-stroke"  x="-540" y="-540" rx="0" ry="0" width="1080" height="1080" />
</g>
<g transform="matrix(1 0 0 1 540 540)" id="0b43b65f-72d1-4515-a860-5db75373e05c"  >
</g>
<g transform="matrix(0.9 0.14 -0.14 0.9 540 540)"  >
<g style="" vector-effect="non-scaling-stroke"   >
		<g transform="matrix(0.13 0 0 -0.13 127.02 -267.52)"  >
<path style="stroke: none; stroke-width: 1; stroke-dasharray: none; stroke-linecap: butt; stroke-dashoffset: 0; stroke-linejoin: miter; stroke-miterlimit: 4; fill: rgb(255,255,255); fill-rule: nonzero; opacity: 1;" vector-effect="non-scaling-stroke"  transform=" translate(-4437.06, -5521.96)" d="M 5360 6710 C 5063 6668 4778 6490 4591 6229 C 4500 6101 4420 5915 4395 5770 C 4373 5642 4369 5483 4386 5390 C 4390 5365 4394 5341 4395 5335 C 4396 5327 4411 5258 4415 5240 C 4416 5237 4420 5227 4423 5218 C 4427 5208 4432 5194 4434 5186 C 4443 5158 4102 5063 3895 5034 C 3868 5031 3837 5026 3827 5024 C 3686 4999 3318 5000 3120 5026 C 3082 5031 2867 5071 2808 5085 C 2707 5108 2408 5215 2318 5261 C 2277 5282 2259 5280 2277 5258 C 2296 5234 2408 5015 2448 4925 C 2470 4876 2508 4779 2534 4710 C 2560 4641 2592 4568 2606 4547 C 2677 4439 2801 4370 2926 4370 C 2973 4370 3101 4402 3125 4419 C 3131 4423 3160 4434 3190 4443 C 3243 4459 3260 4463 3325 4476 C 3393 4489 3558 4488 3640 4474 C 3757 4454 3809 4437 3927 4378 L 4028 4328 L 4092 4382 C 4245 4512 4494 4658 4720 4751 C 4931 4838 5190 4981 5354 5101 C 5421 5151 5484 5227 5513 5295 C 5580 5453 5552 5650 5444 5774 L 5419 5803 L 5382 5769 C 5362 5750 5343 5732 5340 5728 C 5326 5711 5239 5680 5199 5679 C 5020 5672 4869 5861 4925 6023 C 4958 6121 5086 6251 5214 6321 C 5407 6425 5599 6448 5825 6396 C 6100 6332 6343 6095 6429 5805 C 6505 5552 6460 5271 6309 5049 C 6261 4977 6265 4982 6190 4905 C 6062 4772 5853 4663 5690 4643 C 5617 4634 5629 4627 5705 4634 C 6103 4671 6436 4941 6560 5325 C 6597 5441 6605 5505 6604 5665 C 6601 6171 6252 6586 5739 6696 C 5649 6715 5449 6722 5360 6710 z" stroke-linecap="round" />
</g>
		<g transform="matrix(0.13 0 0 -0.13 -267.43 -127.91)"  >
<path style="stroke: none; stroke-width: 1; stroke-dasharray: none; stroke-linecap: butt; stroke-dashoffset: 0; stroke-linejoin: miter; stroke-miterlimit: 4; fill: rgb(255,255,255); fill-rule: nonzero; opacity: 1;" vector-effect="non-scaling-stroke"  transform=" translate(-1478.75, -4474.86)" d="M 1277 6644 C 1276 6643 1250 6639 1220 6635 C 1000 6609 765 6495 609 6339 C 525 6254 512 6239 463 6163 C 392 6051 323 5878 295 5735 C 281 5669 281 5453 295 5372 C 336 5121 468 4886 666 4710 C 833 4562 1023 4469 1250 4426 C 1368 4403 1575 4408 1695 4435 C 1750 4448 1802 4461 1811 4465 C 1825 4470 1833 4455 1858 4378 C 1902 4245 1924 4158 1955 4000 C 1958 3986 1963 3953 1966 3925 C 1970 3898 1974 3872 1976 3869 C 1992 3841 2000 3408 1987 3270 C 1976 3151 1973 3133 1943 2970 C 1914 2810 1828 2547 1746 2368 C 1732 2337 1720 2308 1720 2305 C 1720 2301 1735 2307 1753 2318 C 1876 2393 2171 2529 2325 2581 C 2364 2594 2413 2615 2435 2628 C 2562 2705 2639 2848 2627 2984 C 2619 3062 2620 3059 2581 3160 C 2536 3274 2518 3365 2515 3490 C 2510 3666 2545 3815 2627 3972 L 2673 4058 L 2613 4132 C 2476 4300 2361 4494 2261 4726 C 2150 4985 2062 5150 1937 5333 C 1866 5438 1796 5503 1715 5541 C 1653 5570 1544 5593 1500 5585 C 1486 5583 1459 5579 1440 5576 C 1386 5568 1321 5543 1269 5509 C 1197 5463 1195 5458 1231 5419 C 1330 5309 1348 5213 1291 5101 C 1223 4970 1076 4914 949 4972 C 883 5002 784 5092 724 5176 C 492 5501 540 5969 835 6255 C 934 6352 1080 6432 1225 6471 C 1326 6498 1516 6505 1610 6484 C 1805 6443 1957 6361 2094 6224 C 2219 6099 2307 5945 2344 5784 C 2352 5746 2362 5706 2364 5695 C 2367 5684 2367 5702 2365 5735 C 2352 5949 2255 6160 2091 6333 C 1940 6492 1766 6585 1546 6625 C 1475 6638 1285 6651 1277 6644 z" stroke-linecap="round" />
</g>
		<g transform="matrix(0.13 0 0 -0.13 267.3 127.33)"  >
<path style="stroke: none; stroke-width: 1; stroke-dasharray: none; stroke-linecap: butt; stroke-dashoffset: 0; stroke-linejoin: miter; stroke-miterlimit: 4; fill: rgb(255,255,255); fill-rule: nonzero; opacity: 1;" vector-effect="non-scaling-stroke"  transform=" translate(-5489.19, -2560.56)" d="M 5165 4689 C 5051 4625 4898 4554 4747 4495 C 4669 4465 4577 4426 4542 4409 C 4369 4323 4289 4093 4370 3917 C 4491 3653 4480 3329 4341 3065 L 4294 2975 L 4348 2910 C 4480 2751 4627 2500 4715 2285 C 4755 2187 4858 1977 4909 1890 C 4989 1754 5105 1592 5149 1557 C 5327 1412 5581 1415 5747 1563 L 5769 1583 L 5729 1624 C 5616 1742 5617 1892 5731 2008 C 5810 2087 5927 2108 6026 2060 C 6093 2027 6227 1891 6278 1805 C 6416 1570 6425 1258 6299 1007 C 6120 650 5698 461 5305 561 C 5097 614 4913 738 4781 914 C 4703 1017 4656 1116 4619 1255 L 4600 1325 L 4605 1265 C 4610 1195 4613 1182 4647 1075 C 4737 794 4976 549 5255 452 C 5355 417 5440 400 5550 394 C 5971 369 6368 594 6553 960 C 6682 1215 6716 1479 6655 1746 C 6636 1831 6586 1952 6538 2035 C 6365 2330 6083 2530 5735 2606 C 5578 2640 5305 2623 5168 2571 C 5144 2562 5141 2564 5127 2598 C 5076 2726 5013 2988 4994 3150 C 4991 3180 4985 3214 4983 3225 C 4973 3262 4972 3715 4981 3785 C 4985 3824 4992 3875 4995 3900 C 5000 3940 5007 3983 5015 4030 C 5046 4194 5119 4430 5195 4608 C 5224 4675 5245 4730 5241 4729 C 5238 4729 5204 4711 5165 4689 z" stroke-linecap="round" />
</g>
		<g transform="matrix(0.13 0 0 -0.13 -127.57 267.2)"  >
<path style="stroke: none; stroke-width: 1; stroke-dasharray: none; stroke-linecap: butt; stroke-dashoffset: 0; stroke-linejoin: miter; stroke-miterlimit: 4; fill: rgb(255,255,255); fill-rule: nonzero; opacity: 1;" vector-effect="non-scaling-stroke"  transform=" translate(-2527.67, -1511.6)" d="M 2865 2644 C 2740 2543 2588 2446 2441 2373 C 2366 2336 2296 2303 2285 2298 C 2024 2197 1656 1986 1548 1876 C 1386 1712 1372 1448 1517 1268 L 1546 1232 L 1596 1276 C 1689 1360 1791 1376 1895 1325 C 2031 1259 2088 1108 2026 979 C 1997 916 1893 803 1817 752 C 1575 586 1247 566 975 702 C 799 790 676 915 590 1095 C 524 1231 506 1314 506 1475 C 505 1641 525 1732 595 1875 C 688 2067 857 2232 1053 2324 C 1111 2351 1246 2390 1282 2390 C 1292 2390 1300 2395 1300 2401 C 1300 2406 1297 2409 1293 2407 C 1288 2404 1258 2399 1225 2396 C 1028 2374 803 2263 654 2115 C 462 1924 358 1673 358 1400 C 357 1307 359 1286 381 1166 C 432 880 643 598 913 455 C 1156 326 1402 287 1675 335 C 1736 346 1867 394 1951 436 C 2216 568 2435 826 2534 1122 C 2604 1330 2608 1599 2545 1812 C 2537 1838 2534 1861 2538 1864 C 2556 1874 2751 1933 2843 1954 C 2950 1980 2980 1986 3045 1996 C 3067 1999 3096 2004 3110 2006 C 3269 2033 3713 2032 3877 2004 C 3892 2001 3932 1995 3965 1989 C 4179 1952 4455 1865 4641 1775 C 4670 1762 4695 1752 4697 1754 C 4700 1756 4690 1776 4677 1798 C 4609 1904 4503 2137 4409 2385 C 4397 2418 4375 2462 4362 2484 C 4296 2590 4171 2662 4049 2662 C 3978 2662 3944 2655 3839 2614 C 3706 2563 3607 2545 3465 2548 C 3288 2551 3129 2597 2975 2690 L 2945 2708 L 2865 2644 z" stroke-linecap="round" />
</g>
</g>
</g>
</svg>